<?xml version="1.0" encoding="UTF-8"?>
<svg version="1.1" xmlns="http://www.w3.org/2000/svg" width="100" height="100">
<path d="M0 0 C0.71081223 -0.00978378 1.42162445 -0.01956757 2.15397644 -0.02964783 C4.51189297 -0.05961704 6.86975255 -0.08099471 9.2277832 -0.09985352 C10.43654082 -0.10971126 10.43654082 -0.10971126 11.66971779 -0.11976814 C15.93767161 -0.15237309 20.20560039 -0.17681761 24.47363281 -0.19628906 C28.00167331 -0.21408242 31.52891152 -0.2488677 35.05664062 -0.29882812 C39.31898322 -0.35912158 43.58058356 -0.38977752 47.84333229 -0.39946175 C49.46483811 -0.40800466 51.08632472 -0.42679436 52.70758629 -0.45620537 C66.98748 -0.70124262 66.98748 -0.70124262 71.57861328 3.12255859 C74.96805126 7.28599125 75.22153127 8.94917171 75.26806641 14.23144531 C75.28731926 16.12900322 75.28731926 16.12900322 75.30696106 18.06489563 C75.31512868 19.45268361 75.32257237 20.840476 75.3293457 22.22827148 C75.33342123 22.92628057 75.33749676 23.62428967 75.34169579 24.34345055 C75.36255667 28.03853434 75.37685779 31.73358099 75.38623047 35.42871094 C75.39729017 39.24207629 75.43168398 43.05485733 75.47140217 46.86801624 C75.49757136 49.8028826 75.50592255 52.73760986 75.50951195 55.67258263 C75.51437785 57.07798899 75.52599216 58.48338915 75.54454994 59.88868141 C75.56894096 61.85826144 75.56555661 63.8281257 75.56103516 65.79785156 C75.5669014 66.91766922 75.57276764 68.03748688 75.57881165 69.1912384 C74.98075637 72.89117339 73.67374739 74.54448048 71.09106445 77.20874023 C68.14038871 78.68407811 65.4758732 78.3769129 62.18212891 78.41748047 C61.11591057 78.43215614 61.11591057 78.43215614 60.02815247 78.4471283 C57.67023594 78.47709751 55.31237636 78.49847518 52.9543457 78.51733398 C51.74558808 78.52719172 51.74558808 78.52719172 50.51241112 78.53724861 C46.2444573 78.56985355 41.97652852 78.59429807 37.70849609 78.61376953 C34.18045559 78.63156289 30.65321738 78.66634817 27.12548828 78.71630859 C22.86314569 78.77660205 18.60154535 78.80725799 14.33879662 78.81694221 C12.7172908 78.82548512 11.09580419 78.84427483 9.47454262 78.87368584 C-4.8053511 79.11872309 -4.8053511 79.11872309 -9.39648438 75.29492188 C-12.78592235 71.13148922 -13.03940236 69.46830876 -13.0859375 64.18603516 C-13.09877274 62.92099655 -13.11160797 61.65595795 -13.12483215 60.35258484 C-13.13299977 58.96479686 -13.14044346 57.57700447 -13.1472168 56.18920898 C-13.15129232 55.49119989 -13.15536785 54.7931908 -13.15956688 54.07402992 C-13.18042776 50.37894613 -13.19472888 46.68389947 -13.20410156 42.98876953 C-13.21516127 39.17540418 -13.24955508 35.36262314 -13.28927326 31.54946423 C-13.31544246 28.61459787 -13.32379365 25.67987061 -13.32738304 22.74489784 C-13.33224895 21.33949147 -13.34386325 19.93409132 -13.36242104 18.52879906 C-13.38681206 16.55921903 -13.3834277 14.58935477 -13.37890625 12.61962891 C-13.38477249 11.49981125 -13.39063873 10.37999359 -13.39668274 9.22624207 C-12.79862746 5.52630707 -11.49161849 3.87299999 -8.90893555 1.20874023 C-5.9582598 -0.26659764 -3.29374429 0.04056757 0 0 Z " fill="#9AA2E6" transform="translate(19.908935546875,11.791259765625)"/>
<path d="M0 0 C0.71081223 -0.00978378 1.42162445 -0.01956757 2.15397644 -0.02964783 C4.51189297 -0.05961704 6.86975255 -0.08099471 9.2277832 -0.09985352 C10.43654082 -0.10971126 10.43654082 -0.10971126 11.66971779 -0.11976814 C15.93767161 -0.15237309 20.20560039 -0.17681761 24.47363281 -0.19628906 C28.00167331 -0.21408242 31.52891152 -0.2488677 35.05664062 -0.29882812 C39.31898322 -0.35912158 43.58058356 -0.38977752 47.84333229 -0.39946175 C49.46483811 -0.40800466 51.08632472 -0.42679436 52.70758629 -0.45620537 C66.98748 -0.70124262 66.98748 -0.70124262 71.57861328 3.12255859 C74.96805126 7.28599125 75.22153127 8.94917171 75.26806641 14.23144531 C75.28731926 16.12900322 75.28731926 16.12900322 75.30696106 18.06489563 C75.31512868 19.45268361 75.32257237 20.840476 75.3293457 22.22827148 C75.33342123 22.92628057 75.33749676 23.62428967 75.34169579 24.34345055 C75.36255667 28.03853434 75.37685779 31.73358099 75.38623047 35.42871094 C75.39729017 39.24207629 75.43168398 43.05485733 75.47140217 46.86801624 C75.49757136 49.8028826 75.50592255 52.73760986 75.50951195 55.67258263 C75.51437785 57.07798899 75.52599216 58.48338915 75.54454994 59.88868141 C75.56894096 61.85826144 75.56555661 63.8281257 75.56103516 65.79785156 C75.5669014 66.91766922 75.57276764 68.03748688 75.57881165 69.1912384 C74.98075637 72.89117339 73.67374739 74.54448048 71.09106445 77.20874023 C68.14038871 78.68407811 65.4758732 78.3769129 62.18212891 78.41748047 C61.11591057 78.43215614 61.11591057 78.43215614 60.02815247 78.4471283 C57.67023594 78.47709751 55.31237636 78.49847518 52.9543457 78.51733398 C51.74558808 78.52719172 51.74558808 78.52719172 50.51241112 78.53724861 C46.2444573 78.56985355 41.97652852 78.59429807 37.70849609 78.61376953 C34.18045559 78.63156289 30.65321738 78.66634817 27.12548828 78.71630859 C22.86314569 78.77660205 18.60154535 78.80725799 14.33879662 78.81694221 C12.7172908 78.82548512 11.09580419 78.84427483 9.47454262 78.87368584 C-4.8053511 79.11872309 -4.8053511 79.11872309 -9.39648438 75.29492188 C-12.78592235 71.13148922 -13.03940236 69.46830876 -13.0859375 64.18603516 C-13.09877274 62.92099655 -13.11160797 61.65595795 -13.12483215 60.35258484 C-13.13299977 58.96479686 -13.14044346 57.57700447 -13.1472168 56.18920898 C-13.15129232 55.49119989 -13.15536785 54.7931908 -13.15956688 54.07402992 C-13.18042776 50.37894613 -13.19472888 46.68389947 -13.20410156 42.98876953 C-13.21516127 39.17540418 -13.24955508 35.36262314 -13.28927326 31.54946423 C-13.31544246 28.61459787 -13.32379365 25.67987061 -13.32738304 22.74489784 C-13.33224895 21.33949147 -13.34386325 19.93409132 -13.36242104 18.52879906 C-13.38681206 16.55921903 -13.3834277 14.58935477 -13.37890625 12.61962891 C-13.38477249 11.49981125 -13.39063873 10.37999359 -13.39668274 9.22624207 C-12.79862746 5.52630707 -11.49161849 3.87299999 -8.90893555 1.20874023 C-5.9582598 -0.26659764 -3.29374429 0.04056757 0 0 Z M-6.80459595 6.37045288 C-8.37277266 8.98084503 -8.2902159 10.9720936 -8.29711914 14.00952148 C-8.30657562 15.20085693 -8.3160321 16.39219238 -8.32577515 17.61962891 C-8.31970245 18.90716064 -8.31362976 20.19469238 -8.30737305 21.52124023 C-8.3093941 22.85498209 -8.3123058 24.18872287 -8.31607056 25.52246094 C-8.3204925 28.31675749 -8.31406745 31.11076622 -8.30004883 33.9050293 C-8.28295649 37.48648489 -8.29279844 41.06726605 -8.31076622 44.6486969 C-8.32160786 47.4025175 -8.31815609 50.15617825 -8.31038284 52.91000366 C-8.30740883 54.87262408 -8.31651846 56.83525072 -8.32577515 58.79785156 C-8.31631866 59.98918701 -8.30686218 61.18052246 -8.29711914 62.40795898 C-8.29473236 63.45814209 -8.29234558 64.5083252 -8.28988647 65.59033203 C-8.08457422 68.18440587 -8.08457422 68.18440587 -6.80459595 70.04702759 C-3.9383069 71.80356807 -1.53224276 71.59042721 1.80981445 71.59692383 C2.48818359 71.60218079 3.16655273 71.60743774 3.86547852 71.612854 C6.1075748 71.62605659 8.34896096 71.61731561 10.59106445 71.60717773 C12.14900855 71.60919841 13.70695172 71.6121098 15.26489258 71.61587524 C18.52995815 71.62029892 21.7947775 71.61386632 25.05981445 71.59985352 C29.24657794 71.58276136 33.43276452 71.59260234 37.61950684 71.61057091 C40.83655144 71.6214077 44.0534591 71.61796294 47.27050781 71.61018753 C48.81429106 71.60818522 50.35808671 71.6106459 51.90185547 71.61762619 C54.05901049 71.62523924 56.21522923 71.61363996 58.37231445 71.59692383 C59.60014648 71.59453705 60.82797852 71.59215027 62.09301758 71.58969116 C65.02919725 71.42521791 65.02919725 71.42521791 66.98672485 70.04702759 C68.55490157 67.43663544 68.4723448 65.44538687 68.47924805 62.40795898 C68.49343277 60.62095581 68.49343277 60.62095581 68.50790405 58.79785156 C68.50183136 57.51031982 68.49575867 56.22278809 68.48950195 54.89624023 C68.49152301 53.56249838 68.49443471 52.2287576 68.49819946 50.89501953 C68.50262141 48.10072298 68.49619635 45.30671425 68.48217773 42.51245117 C68.46508539 38.93099558 68.47492734 35.35021441 68.49289513 31.76878357 C68.50373676 29.01496297 68.500285 26.26130222 68.49251175 23.50747681 C68.48953774 21.54485639 68.49864737 19.58222975 68.50790405 17.61962891 C68.49844757 16.42829346 68.48899109 15.23695801 68.47924805 14.00952148 C68.47566788 12.43424683 68.47566788 12.43424683 68.47201538 10.82714844 C68.26670312 8.2330746 68.26670312 8.2330746 66.98672485 6.37045288 C64.12043581 4.6139124 61.71437167 4.82705326 58.37231445 4.82055664 C57.69394531 4.81529968 57.01557617 4.81004272 56.31665039 4.80462646 C54.0745541 4.79142388 51.83316795 4.80016486 49.59106445 4.81030273 C48.03312036 4.80828206 46.47517718 4.80537067 44.91723633 4.80160522 C41.65217076 4.79718155 38.38735141 4.80361414 35.12231445 4.81762695 C30.93555096 4.83471911 26.74936439 4.82487812 22.56262207 4.80690956 C19.34557747 4.79607277 16.12866981 4.79951753 12.91162109 4.80729294 C11.36783785 4.80929525 9.8240422 4.80683457 8.28027344 4.79985428 C6.12311841 4.79224123 3.96689968 4.80384051 1.80981445 4.82055664 C0.58198242 4.82294342 -0.64584961 4.8253302 -1.91088867 4.82778931 C-4.84706834 4.99226256 -4.84706834 4.99226256 -6.80459595 6.37045288 Z " fill="#F1F1F1" transform="translate(19.908935546875,11.791259765625)"/>
<path d="M0 0 C1.01755371 -0.00788544 1.01755371 -0.00788544 2.05566406 -0.01593018 C4.29776035 -0.02913276 6.53914651 -0.02039179 8.78125 -0.01025391 C10.3391941 -0.01227458 11.89713727 -0.01518597 13.45507812 -0.01895142 C16.72014369 -0.0233751 19.98496305 -0.0169425 23.25 -0.00292969 C27.43676349 0.01416247 31.62295007 0.00432148 35.80969238 -0.01364708 C39.02673699 -0.02448387 42.24364465 -0.02103911 45.46069336 -0.0132637 C47.0044766 -0.01126139 48.54827225 -0.01372207 50.09204102 -0.02070236 C52.24919604 -0.02831541 54.40541478 -0.01671613 56.5625 0 C57.79033203 0.00238678 59.01816406 0.00477356 60.28320312 0.00723267 C63.28125 0.38818359 63.28125 0.38818359 65.1769104 1.54989624 C66.74508712 4.16028839 66.66253035 6.15153696 66.66943359 9.18896484 C66.67889008 10.38030029 66.68834656 11.57163574 66.6980896 12.79907227 C66.69201691 14.086604 66.68594421 15.37413574 66.6796875 16.70068359 C66.68170855 18.03442545 66.68462026 19.36816622 66.68838501 20.7019043 C66.69280696 23.49620085 66.6863819 26.29020957 66.67236328 29.08447266 C66.65527094 32.66592825 66.66511289 36.24670941 66.68308067 39.82814026 C66.69392231 42.58196086 66.69047054 45.33562161 66.6826973 48.08944702 C66.67972329 50.05206744 66.68883292 52.01469408 66.6980896 53.97729492 C66.68390488 55.7642981 66.68390488 55.7642981 66.66943359 57.58740234 C66.66704681 58.63758545 66.66466003 59.68776855 66.66220093 60.76977539 C66.28125 63.38818359 66.28125 63.38818359 65.1769104 65.22647095 C62.31062135 66.98301143 59.90455722 66.76987057 56.5625 66.77636719 C55.54494629 66.78425262 55.54494629 66.78425262 54.50683594 66.79229736 C52.26473965 66.80549995 50.02335349 66.79675897 47.78125 66.78662109 C46.2233059 66.78864177 44.66536273 66.79155316 43.10742188 66.7953186 C39.84235631 66.79974228 36.57753695 66.79330968 33.3125 66.77929688 C29.12573651 66.76220472 24.93954993 66.7720457 20.75280762 66.79001427 C17.53576301 66.80085106 14.31885535 66.7974063 11.10180664 66.78963089 C9.5580234 66.78762858 8.01422775 66.79008926 6.47045898 66.79706955 C4.31330396 66.8046826 2.15708522 66.79308332 0 66.77636719 C-1.22783203 66.77398041 -2.45566406 66.77159363 -3.72070312 66.76913452 C-6.71875 66.38818359 -6.71875 66.38818359 -8.6144104 65.22647095 C-10.18258712 62.6160788 -10.10003035 60.62483023 -10.10693359 57.58740234 C-10.11639008 56.39606689 -10.12584656 55.20473145 -10.1355896 53.97729492 C-10.12951691 52.68976318 -10.12344421 51.40223145 -10.1171875 50.07568359 C-10.11920855 48.74194174 -10.12212026 47.40820096 -10.12588501 46.07446289 C-10.13030696 43.28016634 -10.1238819 40.48615761 -10.10986328 37.69189453 C-10.09277094 34.11043894 -10.10261289 30.52965777 -10.12058067 26.94822693 C-10.13142231 24.19440633 -10.12797054 21.44074558 -10.1201973 18.68692017 C-10.11722329 16.72429975 -10.12633292 14.76167311 -10.1355896 12.79907227 C-10.12140488 11.01206909 -10.12140488 11.01206909 -10.10693359 9.18896484 C-10.10454681 8.13878174 -10.10216003 7.08859863 -10.09970093 6.0065918 C-9.71875 3.38818359 -9.71875 3.38818359 -8.6144104 1.54989624 C-5.74812135 -0.20664424 -3.34205722 0.00649662 0 0 Z M-6.71875 4.38818359 C-6.81774561 6.19327732 -6.84674151 8.00225287 -6.84814453 9.81005859 C-6.85129669 10.96795898 -6.85444885 12.12585938 -6.85769653 13.31884766 C-6.8556723 14.57922852 -6.85364807 15.83960938 -6.8515625 17.13818359 C-6.85251923 18.42176758 -6.85347595 19.70535156 -6.85446167 21.02783203 C-6.85593831 23.74822183 -6.85378519 26.46857885 -6.84912109 29.18896484 C-6.84342381 32.68303029 -6.84670299 36.17701892 -6.85269356 39.67108154 C-6.85716754 42.99345512 -6.85403885 46.31580783 -6.8515625 49.63818359 C-6.85358673 50.89856445 -6.85561096 52.15894531 -6.85769653 53.45751953 C-6.85454437 54.61541992 -6.85139221 55.77332031 -6.84814453 56.96630859 C-6.84734894 57.99143555 -6.84655334 59.0165625 -6.84573364 60.07275391 C-6.97912899 62.35024613 -6.97912899 62.35024613 -5.71875 63.38818359 C-3.60737099 63.48766552 -1.49262714 63.51617997 0.62109375 63.51757812 C1.61376755 63.5202066 1.61376755 63.5202066 2.62649536 63.52288818 C4.8239399 63.52730576 7.02130458 63.52436906 9.21875 63.52099609 C10.73950211 63.52166916 12.26025412 63.52263921 13.78100586 63.52389526 C16.97217836 63.52537211 20.16332292 63.52321812 23.35449219 63.51855469 C27.4538953 63.5128574 31.55323296 63.51613648 35.65263367 63.52212715 C38.79407244 63.52573313 41.93549558 63.52459401 45.07693481 63.52199936 C46.58887744 63.52133019 48.10082146 63.52215816 49.61276245 63.52447891 C51.72234887 63.52700605 53.83182787 63.52316403 55.94140625 63.51757812 C57.14418213 63.51678253 58.34695801 63.51598694 59.58618164 63.51516724 C62.19872185 63.69505952 62.19872185 63.69505952 63.28125 62.38818359 C63.38024561 60.58308987 63.40924151 58.77411432 63.41064453 56.96630859 C63.41537277 55.22945801 63.41537277 55.22945801 63.42019653 53.45751953 C63.4181723 52.19713867 63.41614807 50.93675781 63.4140625 49.63818359 C63.41549759 47.71280762 63.41549759 47.71280762 63.41696167 45.74853516 C63.41843831 43.02814536 63.41628519 40.30778834 63.41162109 37.58740234 C63.40592381 34.0933369 63.40920299 30.59934827 63.41519356 27.10528564 C63.41966754 23.78291206 63.41653885 20.46055936 63.4140625 17.13818359 C63.41709885 15.2476123 63.41709885 15.2476123 63.42019653 13.31884766 C63.41704437 12.16094727 63.41389221 11.00304687 63.41064453 9.81005859 C63.40984894 8.78493164 63.40905334 7.75980469 63.40823364 6.70361328 C63.54162899 4.42612105 63.54162899 4.42612105 62.28125 3.38818359 C60.16987099 3.28870167 58.05512714 3.26018721 55.94140625 3.25878906 C55.27962372 3.25703674 54.61784119 3.25528442 53.93600464 3.253479 C51.7385601 3.24906142 49.54119542 3.25199813 47.34375 3.25537109 C45.82299789 3.25469803 44.30224588 3.25372798 42.78149414 3.25247192 C39.59032164 3.25099508 36.39917708 3.25314907 33.20800781 3.2578125 C29.1086047 3.26350979 25.00926704 3.26023071 20.90986633 3.25424004 C17.76842756 3.25063406 14.62700442 3.25177318 11.48556519 3.25436783 C9.97362256 3.255037 8.46167854 3.25420903 6.94973755 3.25188828 C4.84015113 3.24936114 2.73067213 3.25320316 0.62109375 3.25878906 C-0.58168213 3.25958466 -1.78445801 3.26038025 -3.02368164 3.26119995 C-5.63622185 3.08130767 -5.63622185 3.08130767 -6.71875 4.38818359 Z " fill="#413A6E" transform="translate(21.71875,16.61181640625)"/>
<path d="M0 0 C0.66178253 -0.00175232 1.32356506 -0.00350464 2.00540161 -0.00531006 C4.20284615 -0.00972764 6.40021083 -0.00679094 8.59765625 -0.00341797 C10.11840836 -0.00409104 11.63916037 -0.00506108 13.15991211 -0.00631714 C16.35108461 -0.00779398 19.54222917 -0.00563999 22.73339844 -0.00097656 C26.83280155 0.00472073 30.93213921 0.00144165 35.03153992 -0.00454903 C38.17297869 -0.008155 41.31440183 -0.00701589 44.45584106 -0.00442123 C45.96778369 -0.00375207 47.47972771 -0.00458003 48.9916687 -0.00690079 C51.10125512 -0.00942792 53.21073412 -0.00558591 55.3203125 0 C56.52308838 0.00079559 57.72586426 0.00159119 58.96508789 0.00241089 C61.66015625 0.12939453 61.66015625 0.12939453 62.66015625 1.12939453 C62.66015625 4.09939453 62.66015625 7.06939453 62.66015625 10.12939453 C39.56015625 10.12939453 16.46015625 10.12939453 -7.33984375 10.12939453 C-7.33984375 0.00485504 -7.33984375 0.00485504 0 0 Z " fill="#717DC1" transform="translate(22.33984375,19.87060546875)"/>
<path d="M0 0 C2.40139808 1.818025 2.96111148 2.72346251 3.38768005 5.75680542 C3.39578453 7.42962082 3.39578453 7.42962082 3.40405273 9.13623047 C3.41673691 10.40119354 3.42942108 11.66615662 3.44248962 12.9694519 C3.44043788 14.35203209 3.43744961 15.73461116 3.43359375 17.1171875 C3.43815513 18.53582001 3.44346057 19.95445031 3.44947815 21.37307739 C3.45841513 24.34727957 3.45598067 27.32121335 3.44604492 30.29541016 C3.43456888 34.10098682 3.45474134 37.90563369 3.48396206 41.71108818 C3.50234066 44.64171202 3.50202815 47.57211389 3.49632454 50.50278091 C3.49617145 51.90536933 3.50220601 53.30797291 3.51461601 54.71050644 C3.52954806 56.67527909 3.51620748 58.64020457 3.50170898 60.60498047 C3.50154282 61.72178192 3.50137665 62.83858337 3.50120544 63.98922729 C2.88732177 67.67686523 1.57468532 69.3402543 -1 72 C-3.9701159 73.48505795 -6.65826158 73.14374075 -9.97241211 73.16113281 C-11.0482682 73.16858017 -11.0482682 73.16858017 -12.14585876 73.17617798 C-14.52303011 73.19080604 -16.90013476 73.19760211 -19.27734375 73.203125 C-20.92639671 73.20887527 -22.57544965 73.21463301 -24.22450256 73.22039795 C-27.68376986 73.23090932 -31.1430139 73.23675131 -34.60229492 73.24023438 C-39.03900554 73.24572397 -43.47541001 73.26976115 -47.9120245 73.29820633 C-51.31861781 73.31681071 -54.72513698 73.32203709 -58.13177681 73.32357025 C-59.76768228 73.32660155 -61.40358631 73.33464612 -63.03944206 73.34775543 C-65.32593111 73.3647729 -67.61166703 73.36294681 -69.89819336 73.35644531 C-71.20010117 73.36009094 -72.50200897 73.36373657 -73.84336853 73.36749268 C-77 73 -77 73 -78.94386292 71.47772217 C-79.29238815 70.99007385 -79.64091339 70.50242554 -80 70 C-79.08180481 70.00444122 -78.16360962 70.00888245 -77.21759033 70.01345825 C-68.56575465 70.05352729 -59.91395012 70.08398052 -51.262043 70.10362434 C-46.81397799 70.1140629 -42.36598964 70.12822345 -37.91796875 70.15087891 C-33.62563066 70.17260467 -29.33336631 70.18456808 -25.04097748 70.18975449 C-23.40311268 70.19345072 -21.76525193 70.20066849 -20.12741852 70.21146011 C-17.83388028 70.22597155 -15.54064705 70.2279781 -13.24707031 70.22705078 C-11.94135071 70.231492 -10.6356311 70.23593323 -9.29034424 70.24050903 C-6.17333905 70.01267029 -4.49026837 69.84054421 -2 68 C0.35674088 64.70190133 0.24266764 61.63758118 0.22705078 57.67089844 C0.22689972 56.38987244 0.22674866 55.10884644 0.22659302 53.78900146 C0.21638051 52.39579106 0.20594853 51.00258224 0.1953125 49.609375 C0.19158064 48.18019814 0.18873448 46.75101872 0.18673706 45.32183838 C0.17911419 41.56694429 0.15947739 37.81220581 0.1373291 34.05737305 C0.11684159 30.22316594 0.10772914 26.38893361 0.09765625 22.5546875 C0.07623012 15.03638752 0.04211056 7.5182156 0 0 Z " fill="#010101" transform="translate(92,17)"/>
<path d="M0 0 C5.54050113 0.56825653 10.03715966 2.62886517 15 5 C14.8359375 6.82421875 14.8359375 6.82421875 14 9 C11.6015625 10.51953125 11.6015625 10.51953125 8.625 11.8125 C7.64789063 12.25207031 6.67078125 12.69164062 5.6640625 13.14453125 C3 14 3 14 0 13 C1 10 1 10 2.84765625 9.05078125 C4.8984375 8.3671875 6.94921875 7.68359375 9 7 C6.03 5.35 3.06 3.7 0 2 C0 1.34 0 0.68 0 0 Z " fill="#E9EAF0" transform="translate(56,49)"/>
<path d="M0 0 C-1 3 -1 3 -2.84765625 4.16796875 C-3.57855469 4.50441406 -4.30945313 4.84085938 -5.0625 5.1875 C-7.0115625 6.0846875 -7.0115625 6.0846875 -9 7 C-4.545 8.98 -4.545 8.98 0 11 C0 11.66 0 12.32 0 13 C-5.77378925 12.5188509 -9.95859836 10.81532819 -15 8 C-14.80078125 6.140625 -14.80078125 6.140625 -14 4 C-11.85546875 2.734375 -11.85546875 2.734375 -9.1875 1.75 C-7.87845703 1.24726562 -7.87845703 1.24726562 -6.54296875 0.734375 C-4 0 -4 0 0 0 Z " fill="#EAEAF0" transform="translate(44,49)"/>
<path d="M0 0 C0.99 0 1.98 0 3 0 C1.40554307 8.26218593 -1.26018069 16.06288986 -4 24 C-4.99 24 -5.98 24 -7 24 C-6.38100727 18.64008572 -5.15303188 13.75412177 -3.5 8.625 C-3.27441406 7.90183594 -3.04882812 7.17867187 -2.81640625 6.43359375 C-1.13699777 1.13699777 -1.13699777 1.13699777 0 0 Z " fill="#E9EAF0" transform="translate(52,42)"/>
</svg>
